
      <svg xmlns="http://www.w3.org/2000/svg" width="1024" height="1024" viewBox="0 0 1024 1024">
        
      <defs>
        <linearGradient id="grad1" x1="0%" y1="0%" x2="100%" y2="100%">
          <stop offset="0%" style="stop-color:#6314f5" />
          <stop offset="100%" style="stop-color:#3b82f6" />
        </linearGradient>
      </defs>
    
        <rect x="0" y="0" width="1024" height="1024" rx="200" ry="200" fill="url(#grad1)" />
        <g transform="translate(512, 512) rotate(0)">
           <g transform="translate(-347, -347)">
             <svg xmlns="http://www.w3.org/2000/svg" width="694" height="694" viewBox="0 0 24 24" fill="#eab308" stroke="#ffffff" stroke-width="0.829971181556196" stroke-linecap="round" stroke-linejoin="round" class="lucide lucide-folder-open" fill-opacity="0.95"><path d="m6 14 1.5-2.9A2 2 0 0 1 9.24 10H20a2 2 0 0 1 1.94 2.5l-1.54 6a2 2 0 0 1-1.95 1.5H4a2 2 0 0 1-2-2V5a2 2 0 0 1 2-2h3.9a2 2 0 0 1 1.69.9l.81 1.2a2 2 0 0 0 1.67.9H18a2 2 0 0 1 2 2v2"></path></svg>
           </g>
        </g>
      </svg>
    